<?xml version="1.0" encoding="UTF-8" standalone="no"?>
<!-- Created with Inkscape (http://www.inkscape.org/) -->

<svg
   xmlns:dc="http://purl.org/dc/elements/1.1/"
   xmlns:cc="http://creativecommons.org/ns#"
   xmlns:rdf="http://www.w3.org/1999/02/22-rdf-syntax-ns#"
   xmlns:svg="http://www.w3.org/2000/svg"
   xmlns="http://www.w3.org/2000/svg"
   xmlns:sodipodi="http://sodipodi.sourceforge.net/DTD/sodipodi-0.dtd"
   xmlns:inkscape="http://www.inkscape.org/namespaces/inkscape"
   id="svg16593"
   version="1.1"
   inkscape:version="0.91 r13725"
   xml:space="preserve"
   width="1530"
   height="990"
   viewBox="0 0 1530 990"
   sodipodi:docname="master-legends-2016-11-03.ai"><metadata
     id="metadata16599"><rdf:RDF><cc:Work
         rdf:about=""><dc:format>image/svg+xml</dc:format><dc:type
           rdf:resource="http://purl.org/dc/dcmitype/StillImage" /></cc:Work></rdf:RDF></metadata><defs
     id="defs16597"><clipPath
       clipPathUnits="userSpaceOnUse"
       id="clipPath16773"><path
         d="m 646.867,520.498 1.985,0 0,7.272 -1.986,10e-4 10e-4,-7.273 z"
         id="path16775"
         inkscape:connector-curvature="0" /></clipPath><clipPath
       clipPathUnits="userSpaceOnUse"
       id="clipPath16793"><path
         d="m 637.016,525.297 9.056,10e-4 0,6.903 -9.056,0 0,-6.904 z"
         id="path16795"
         inkscape:connector-curvature="0" /></clipPath><clipPath
       clipPathUnits="userSpaceOnUse"
       id="clipPath16805"><path
         d="m 640.558,524.553 10e-4,-6.291 5.894,0 -10e-4,6.291 -5.894,0 z"
         id="path16807"
         inkscape:connector-curvature="0" /></clipPath><clipPath
       clipPathUnits="userSpaceOnUse"
       id="clipPath16817"><path
         d="m 649.633,532.2 0,-6.903 9.057,10e-4 10e-4,6.903 -9.058,-10e-4 z"
         id="path16819"
         inkscape:connector-curvature="0" /></clipPath><clipPath
       clipPathUnits="userSpaceOnUse"
       id="clipPath16829"><path
         d="m 649.254,524.553 -10e-4,-6.291 5.895,0 10e-4,6.291 -5.895,0 z"
         id="path16831"
         inkscape:connector-curvature="0" /></clipPath></defs><sodipodi:namedview
     pagecolor="#ffffff"
     bordercolor="#666666"
     borderopacity="1"
     objecttolerance="10"
     gridtolerance="10"
     guidetolerance="10"
     inkscape:pageopacity="0"
     inkscape:pageshadow="2"
     inkscape:window-width="640"
     inkscape:window-height="480"
     id="namedview16595"
     showgrid="false" /><g
     id="g16601"
     inkscape:groupmode="layer"
     inkscape:label="master-legends-2016-11-03"
     transform="matrix(1.25,0,0,-1.25,0,990)"><text
       transform="matrix(1,0,0,-1,230.0684,750.5718)"
       style="font-variant:normal;font-weight:bold;font-stretch:normal;font-size:13px;font-family:'Gotham Rounded Bold';-inkscape-font-specification:GothamRounded-Bold;writing-mode:lr-tb;fill:#231f20;fill-opacity:1;fill-rule:nonzero;stroke:none"
       id="text16603"><tspan
         x="0"
         y="0"
         id="tspan16605">!</tspan><tspan
         x="-0.63700002"
         y="15.002"
         id="tspan16607">1</tspan><tspan
         x="56.328999"
         y="-2.7950001"
         id="tspan16609">@</tspan><tspan
         x="58.655998"
         y="12.207"
         id="tspan16611">2</tspan><tspan
         x="118.898"
         y="-4.1859999"
         id="tspan16613">#</tspan><tspan
         x="119.405"
         y="10.816"
         id="tspan16615">3</tspan><tspan
         x="180.024"
         y="-4.5500002"
         id="tspan16617">$</tspan><tspan
         x="179.73801"
         y="10.452"
         id="tspan16619">4</tspan><tspan
         x="239.655"
         y="-4.5500002"
         id="tspan16621">%</tspan><tspan
         x="241.14999"
         y="10.452"
         id="tspan16623">5</tspan><tspan
         x="1.1569999"
         y="78.650002"
         id="tspan16625">Q</tspan><tspan
         x="58.344002"
         y="75.985001"
         id="tspan16627">W</tspan><tspan
         x="120.978"
         y="74.633003"
         id="tspan16629">E</tspan><tspan
         x="180.53101 242.047"
         y="74.294998"
         sodipodi:role="line"
         id="tspan16631">RT</tspan><tspan
         x="6.9289999"
         y="148.967"
         id="tspan16633">A</tspan><tspan
         x="64.441002"
         y="146.44501"
         id="tspan16635">S</tspan><tspan
         x="122.317"
         y="145.145"
         id="tspan16637">D</tspan><tspan
         x="181.974 242.164"
         y="144.83299"
         sodipodi:role="line"
         id="tspan16639">FG</tspan></text>
<text
       transform="matrix(1,0,0,-1,159.1553,599.1938)"
       style="font-variant:normal;font-weight:bold;font-stretch:normal;font-size:9px;font-family:'Gotham Rounded Bold';-inkscape-font-specification:GothamRounded-Bold;writing-mode:lr-tb;fill:#231f20;fill-opacity:1;fill-rule:nonzero;stroke:none"
       id="text16641"><tspan
         x="0 6.0749998 12.15 17.757"
         y="0"
         sodipodi:role="line"
         id="tspan16643">pgup</tspan></text>
<text
       transform="matrix(1,0,0,-1,240.6118,520.939)"
       style="font-variant:normal;font-weight:bold;font-stretch:normal;font-size:13px;font-family:'Gotham Rounded Bold';-inkscape-font-specification:GothamRounded-Bold;writing-mode:lr-tb;fill:#231f20;fill-opacity:1;fill-rule:nonzero;stroke:none"
       id="text16645"><tspan
         x="0"
         y="0"
         id="tspan16647">Z</tspan><tspan
         x="54.561001"
         y="-2.444"
         id="tspan16649">X</tspan><tspan
         x="112.112"
         y="-3.744"
         id="tspan16651">C</tspan><tspan
         x="169.96201 231.00999"
         y="-4.0689998"
         sodipodi:role="line"
         id="tspan16653">VB</tspan></text>
<text
       transform="matrix(1,0,0,-1,162.395,518.5288)"
       style="font-variant:normal;font-weight:bold;font-stretch:normal;font-size:9px;font-family:'Gotham Rounded Bold';-inkscape-font-specification:GothamRounded-Bold;writing-mode:lr-tb;fill:#231f20;fill-opacity:1;fill-rule:nonzero;stroke:none"
       id="text16655"><tspan
         x="0 6.0749998 12.15 18.225"
         y="0"
         sodipodi:role="line"
         id="tspan16657">pgdn</tspan><tspan
         x="369.04501 372.78 378.108"
         y="-88.362"
         sodipodi:role="line"
         id="tspan16659">tab</tspan><tspan
         x="368.02802 373.54501 378.06299"
         y="-7.6139998"
         sodipodi:role="line"
         id="tspan16661">esc</tspan><tspan
         x="89.388 94.527 98.262001 102.024"
         y="91.961998"
         sodipodi:role="line"
         id="tspan16663">ctrl</tspan><tspan
         x="146.772 152.847 158.13901 162.657"
         y="113.976"
         sodipodi:role="line"
         id="tspan16665">bksp</tspan><tspan
         x="204.993 210.132 218.68201"
         y="138.06"
         sodipodi:role="line"
         id="tspan16667">cmd</tspan><tspan
         x="261.79199 266.31 271.91699 274.63501 278.073"
         y="191.68201"
         sodipodi:role="line"
         id="tspan16669">shift</tspan><tspan
         x="770.94 776.07898 779.81403 783.57599"
         y="102.537"
         sodipodi:role="line"
         id="tspan16671">ctrl</tspan><tspan
         x="698.77802 703.29602 709.37097 714.69897 719.703"
         y="119.043"
         sodipodi:role="line"
         id="tspan16673">space</tspan><tspan
         x="636.81299 642.14099 644.85901"
         y="138.069"
         sodipodi:role="line"
         id="tspan16675">alt</tspan><tspan
         x="539.34302 543.86102 549.46802 552.18597 555.62402"
         y="176.283"
         sodipodi:role="line"
         id="tspan16677">shift</tspan><tspan
         x="701.92798 705.36603 710.97302 716.58002 721.71899 725.45398 728.172 734.14801"
         y="186.57001"
         sodipodi:role="line"
         id="tspan16679">function</tspan><tspan
         x="159.489 162.927 168.534 174.14101 179.28 183.015 185.733 191.709"
         y="198.36"
         sodipodi:role="line"
         id="tspan16681">function</tspan></text>
<text
       transform="matrix(1,0,0,-1,167.666,674.562)"
       style="font-variant:normal;font-weight:bold;font-stretch:normal;font-size:13px;font-family:'Gotham Rounded Bold';-inkscape-font-specification:GothamRounded-Bold;writing-mode:lr-tb;fill:#231f20;fill-opacity:1;fill-rule:nonzero;stroke:none"
       id="text16683"><tspan
         x="0"
         y="0"
         id="tspan16685">~</tspan><tspan
         x="0.064999998"
         y="15.002"
         id="tspan16687">`</tspan></text>
<text
       transform="matrix(1,0,0,-1,530.8516,676.2778)"
       style="font-variant:normal;font-weight:bold;font-stretch:normal;font-size:9px;font-family:'Gotham Rounded Bold';-inkscape-font-specification:GothamRounded-Bold;writing-mode:lr-tb;fill:#231f20;fill-opacity:1;fill-rule:nonzero;stroke:none"
       id="text16689"><tspan
         x="0 2.7179999 8.2349997"
         y="0"
         sodipodi:role="line"
         id="tspan16691">led</tspan></text>
<text
       transform="matrix(1,0,0,-1,1025.7095,765.3267)"
       style="font-variant:normal;font-weight:bold;font-stretch:normal;font-size:13px;font-family:'Gotham Rounded Bold';-inkscape-font-specification:GothamRounded-Bold;writing-mode:lr-tb;fill:#231f20;fill-opacity:1;fill-rule:nonzero;stroke:none"
       id="text16693"><tspan
         x="0"
         y="0"
         id="tspan16695">)</tspan><tspan
         x="-1.846"
         y="15.002"
         id="tspan16697">0</tspan><tspan
         x="-73.333"
         y="0.13"
         id="tspan16699">(</tspan><tspan
         x="-74.737"
         y="15.132"
         id="tspan16701">9</tspan><tspan
         x="-143.884"
         y="1.0140001"
         id="tspan16703">*</tspan><tspan
         x="-145.18401"
         y="16.016001"
         id="tspan16705">8</tspan><tspan
         x="-225.134"
         y="3.7049999"
         id="tspan16707">&amp;</tspan><tspan
         x="-224.627"
         y="18.707001"
         id="tspan16709">7</tspan><tspan
         x="-303.875"
         y="3.7049999"
         id="tspan16711">^</tspan><tspan
         x="-304.92801"
         y="18.707001"
         id="tspan16713">6</tspan><tspan
         x="-6.006"
         y="83.654999"
         id="tspan16715">P</tspan><tspan
         x="-78.740997"
         y="83.915001"
         id="tspan16717">O</tspan><tspan
         x="-145.17101"
         y="84.837997"
         id="tspan16719">I</tspan><tspan
         x="-226.52499 -306.11099"
         y="87.555"
         sodipodi:role="line"
         id="tspan16721">UY</tspan><tspan
         x="-8.8140001"
         y="161.47301"
         id="tspan16723">:</tspan><tspan
         x="-8.8140001"
         y="176.47501"
         id="tspan16725">;</tspan><tspan
         x="-80.365997"
         y="169.377"
         id="tspan16727">L</tspan><tspan
         x="-149.68201"
         y="170.35201"
         id="tspan16729">K</tspan><tspan
         x="-226.291 -307.59299"
         y="173.095"
         sodipodi:role="line"
         id="tspan16731">JH</tspan></text>
<text
       transform="matrix(1,0,0,-1,1085.0718,600.1606)"
       style="font-variant:normal;font-weight:bold;font-stretch:normal;font-size:12px;font-family:'Gotham Rounded Bold';-inkscape-font-specification:GothamRounded-Bold;writing-mode:lr-tb;fill:#231f20;fill-opacity:1;fill-rule:nonzero;stroke:none"
       id="text16733"><tspan
         x="0"
         y="0"
         id="tspan16735">&quot;</tspan><tspan
         x="1.404"
         y="14.4"
         id="tspan16737">'</tspan></text>
<text
       transform="matrix(1,0,0,-1,1012.0278,513.1929)"
       style="font-variant:normal;font-weight:bold;font-stretch:normal;font-size:13px;font-family:'Gotham Rounded Bold';-inkscape-font-specification:GothamRounded-Bold;writing-mode:lr-tb;fill:#231f20;fill-opacity:1;fill-rule:nonzero;stroke:none"
       id="text16739"><tspan
         x="0"
         y="0"
         id="tspan16741">?</tspan><tspan
         x="0.090999998"
         y="15.002"
         id="tspan16743">/</tspan><tspan
         x="-67.950996"
         y="0.48100001"
         id="tspan16745">&gt;</tspan><tspan
         x="-65.650002"
         y="15.483"
         id="tspan16747">.</tspan><tspan
         x="-135.603"
         y="1.456"
         id="tspan16749">&lt;</tspan><tspan
         x="-133.302"
         y="16.458"
         id="tspan16751">,</tspan><tspan
         x="-213.59 -293.11099"
         y="11.7"
         sodipodi:role="line"
         id="tspan16753">MN</tspan></text>
<text
       transform="matrix(1,0,0,-1,1082.7661,510.7827)"
       style="font-variant:normal;font-weight:bold;font-stretch:normal;font-size:9px;font-family:'Gotham Rounded Bold';-inkscape-font-specification:GothamRounded-Bold;writing-mode:lr-tb;fill:#231f20;fill-opacity:1;fill-rule:nonzero;stroke:none"
       id="text16755"><tspan
         x="0"
         y="0"
         id="tspan16757">_</tspan><tspan
         x="0.86400002"
         y="15.003"
         id="tspan16759">-</tspan><tspan
         x="-449.31601 -445.689 -440.172 -436.43701 -430.82999 -427.06799"
         y="-93.599998"
         sodipodi:role="line"
         id="tspan16761">return</tspan></text>
<text
       transform="matrix(1,0,0,-1,1086.6543,685.8335)"
       style="font-variant:normal;font-weight:bold;font-stretch:normal;font-size:13px;font-family:'Gotham Rounded Bold';-inkscape-font-specification:GothamRounded-Bold;writing-mode:lr-tb;fill:#231f20;fill-opacity:1;fill-rule:nonzero;stroke:none"
       id="text16763"><tspan
         x="0"
         y="0"
         id="tspan16765">+</tspan><tspan
         x="0"
         y="15.002"
         id="tspan16767">=</tspan></text>
<g
       id="g16867"><g
         id="g16769"><g
           clip-path="url(#clipPath16773)"
           id="g16771"><g
             transform="translate(647.8584,527.77)"
             id="g16777"><path
               inkscape:connector-curvature="0"
               id="path16779"
               style="fill:#000000;fill-opacity:1;fill-rule:nonzero;stroke:none"
               d="m 0,0 c -0.544,0 -0.991,-0.897 -0.991,-2.442 0,-1.547 0.4,-4.83 0.991,-4.831 0.593,10e-4 0.993,3.284 0.993,4.831 C 0.993,-0.897 0.545,0 0,0" /></g></g></g><g
         transform="translate(647.3916,528.2729)"
         id="g16781"><path
           inkscape:connector-curvature="0"
           id="path16783"
           style="fill:#000000;fill-opacity:1;fill-rule:nonzero;stroke:none"
           d="M 0,0 -0.869,1.672 -1.302,1.445 -0.432,-0.224 0,0 Z" /></g><g
         transform="translate(649.6162,529.7188)"
         id="g16785"><path
           inkscape:connector-curvature="0"
           id="path16787"
           style="fill:#000000;fill-opacity:1;fill-rule:nonzero;stroke:none"
           d="M 0,0 -0.433,0.227 -1.303,-1.445 -0.87,-1.669 0,0 Z" /></g><g
         id="g16789"><g
           clip-path="url(#clipPath16793)"
           id="g16791"><g
             transform="translate(638.5049,532.1479)"
             id="g16797"><path
               inkscape:connector-curvature="0"
               id="path16799"
               style="fill:#000000;fill-opacity:1;fill-rule:nonzero;stroke:none"
               d="m 0,0 c -1.045,0.248 -1.646,-0.383 -1.456,-1.63 0.397,-2.613 1.334,-4.22 3.332,-4.706 1.52,-0.372 5.691,-0.515 5.691,-0.515 C 6.714,-2.684 2.561,-0.609 0,0" /></g></g></g><g
         id="g16801"><g
           clip-path="url(#clipPath16805)"
           id="g16803"><g
             transform="translate(646.125,524.4761)"
             id="g16809"><path
               inkscape:connector-curvature="0"
               id="path16811"
               style="fill:#000000;fill-opacity:1;fill-rule:nonzero;stroke:none"
               d="m 0,0 c 0,0 -1.825,0.145 -3.053,0.04 -1.564,-0.131 -2.513,-0.656 -2.513,-2.468 0,-2.654 2.551,-3.851 3.855,-3.781 0.539,0.026 1.46,1.13 1.783,1.987 0.211,0.563 0.306,1.084 0.229,1.894 C 0.254,-1.832 0,0 0,0" /></g></g></g><g
         id="g16813"><g
           clip-path="url(#clipPath16817)"
           id="g16815"><g
             transform="translate(657.2002,532.1475)"
             id="g16821"><path
               inkscape:connector-curvature="0"
               id="path16823"
               style="fill:#000000;fill-opacity:1;fill-rule:nonzero;stroke:none"
               d="m 0,0 c -2.56,-0.609 -6.713,-2.683 -7.567,-6.851 0,0 4.171,0.144 5.69,0.516 2.001,0.485 2.937,2.092 3.333,4.706 C 1.646,-0.382 1.045,0.249 0,0" /></g></g></g><g
         id="g16825"><g
           clip-path="url(#clipPath16829)"
           id="g16827"><g
             transform="translate(652.6338,524.5161)"
             id="g16833"><path
               inkscape:connector-curvature="0"
               id="path16835"
               style="fill:#000000;fill-opacity:1;fill-rule:nonzero;stroke:none"
               d="m 0,0 c -1.228,0.105 -3.053,-0.041 -3.053,-0.041 0,0 -0.256,-1.831 -0.301,-2.328 -0.077,-0.811 0.017,-1.33 0.229,-1.894 0.322,-0.856 1.244,-1.96 1.78,-1.987 1.305,-0.069 3.86,1.128 3.86,3.782 C 2.515,-0.656 1.563,-0.131 0,0" /></g></g></g></g><text
       transform="matrix(1,0,0,-1,962.2759,612.623)"
       style="font-variant:normal;font-weight:bold;font-stretch:normal;font-size:14.17319965px;font-family:Calibri;-inkscape-font-specification:Calibri-Bold;writing-mode:lr-tb;fill:#231f20;fill-opacity:1;fill-rule:nonzero;stroke:none"
       id="text16837"><tspan
         x="0"
         y="0"
         id="tspan16839">→</tspan><tspan
         x="-68.966789"
         y="0.70866001"
         id="tspan16841">↑</tspan><tspan
         x="-146.39499 -226.26097"
         y="3.2031431"
         sodipodi:role="line"
         id="tspan16843">↓←</tspan></text>
<text
       transform="matrix(1,0,0,-1,1103.6677,520.62476)"
       style="font-variant:normal;font-weight:bold;font-stretch:normal;font-size:14.17319965px;font-family:'Gotham Rounded Bold';-inkscape-font-specification:GothamRounded-Bold;writing-mode:lr-tb;fill:#231f20;fill-opacity:1;fill-rule:nonzero;stroke:none"
       id="text16845"><tspan
         x="0"
         y="0"
         id="tspan16847">|</tspan><tspan
         x="-71.177811"
         y="-3.5574732"
         id="tspan16849">\</tspan><tspan
         x="-285.41989"
         y="-175.71933"
         id="tspan16851">{</tspan><tspan
         x="-206.54604"
         y="-178.21382"
         id="tspan16853">}</tspan><tspan
         x="-136.36037"
         y="-178.90829"
         id="tspan16855">[</tspan><tspan
         x="-64.332153"
         y="-178.68153"
         id="tspan16857">]</tspan></text>
<text
       transform="matrix(1,0,0,-1,635.4238,681.1724)"
       style="font-variant:normal;font-weight:bold;font-stretch:normal;font-size:9px;font-family:'Gotham Rounded Bold';-inkscape-font-specification:GothamRounded-Bold;writing-mode:lr-tb;fill:#231f20;fill-opacity:1;fill-rule:nonzero;stroke:none"
       id="text16859"><tspan
         x="0 5.3280001 10.89"
         y="0"
         sodipodi:role="line"
         id="tspan16861">any</tspan><tspan
         x="446.68799 452.29501 457.90201"
         y="-67.050003"
         sodipodi:role="line"
         id="tspan16863">num</tspan><tspan
         x="-471.08701 -465.01199 -461.38501 -455.409"
         y="-46.548"
         sodipodi:role="line"
         id="tspan16865">prog</tspan></text>
</g></svg>